<svg width="255" height="255" viewBox="0 0 255 255" fill="none" xmlns="http://www.w3.org/2000/svg">
<circle cx="127.5" cy="127.5" r="125.75" stroke="#777777" stroke-width="3.5"/>
<circle cx="127.5" cy="127.5" r="73.5" stroke="#777777" stroke-width="2"/>
<path d="M18 18L237 237" stroke="#777777" stroke-width="2"/>
<path d="M237 18L18 237" stroke="#777777" stroke-width="2"/>
<path d="M201.911 142.686L189 110.41L201.911 78.1346C202.543 76.5548 202.349 74.7648 201.396 73.3563C200.442 71.9474 198.852 71.1035 197.15 71.1035H137.336V59.1406C137.336 56.3092 135.04 54.0137 132.209 54.0137H68.9766V45.127C68.9766 42.2955 66.6811 40 63.8496 40C61.0182 40 58.7227 42.2955 58.7227 45.127C58.7227 66.5634 58.7227 191.678 58.7227 209.873C58.7227 212.704 61.0182 215 63.8496 215C66.6811 215 68.9766 212.704 68.9766 209.873V132.627H109.992V144.59C109.992 147.389 112.273 149.717 115.119 149.717H197.15C198.852 149.717 200.442 148.873 201.396 147.464C202.35 146.055 202.543 144.265 201.911 142.686ZM127.082 122.373C121.211 122.373 75.3125 122.373 68.9766 122.373V64.2676H127.082C127.082 70.139 127.082 116.037 127.082 122.373ZM127.497 139.463L135.833 131.126C136.813 130.147 137.336 128.8 137.336 127.5V81.3574H189.578L178.718 108.506C178.23 109.728 178.23 111.092 178.718 112.315L189.578 139.463H127.497Z" fill="white"/>
</svg>
