<svg width="64" height="64" viewBox="0 0 64 64" fill="none" xmlns="http://www.w3.org/2000/svg">
<path d="M61 34.6126C60.492 40.1092 58.4292 45.3474 55.0528 49.7143C51.6765 54.0812 47.1263 57.3963 41.9346 59.2716C36.7429 61.1468 31.1246 61.5047 25.7369 60.3034C20.3493 59.1021 15.4152 56.3912 11.512 52.488C7.60876 48.5848 4.8979 43.6507 3.69658 38.2631C2.49527 32.8754 2.85318 27.2571 4.72844 22.0654C6.60371 16.8737 9.91876 12.3235 14.2857 8.94715C18.6526 5.57079 23.8908 3.50795 29.3874 3C26.1693 7.35365 24.6208 12.7177 25.0234 18.1166C25.426 23.5155 27.753 28.5906 31.5812 32.4188C35.4094 36.247 40.4845 38.574 45.8834 38.9766C51.2823 39.3792 56.6463 37.8307 61 34.6126Z" stroke="white" stroke-width="5" stroke-linecap="round" stroke-linejoin="round"/>
</svg>
